<svg version="1.1" xmlns="http://www.w3.org/2000/svg" xmlns:xlink="http://www.w3.org/1999/xlink" width="870.17724609375" height="500"><defs/><g><g transform="translate(-94,-118) scale(1,1)"><rect fill="#C0C0C0" stroke="none" x="271" y="135" width="544" height="480" opacity="0.2"/></g><g transform="translate(-94,-118) scale(1,1)"><rect fill="#ffffff" stroke="none" x="264" y="128" width="544" height="480"/></g><g transform="translate(-94,-118) scale(1,1)"><path fill="none" stroke="#000000" d="M 264 128 L 808 128 L 808 608 L 264 608 L 264 128 Z Z" stroke-miterlimit="10"/></g><g transform="translate(-94,-118) scale(1,1)"><g><path fill="none" stroke="none"/><text fill="#000000" stroke="none" font-family="Arial" font-size="13px" font-style="normal" font-weight="bold" text-decoration="none" x="502.900146484375" y="147.5">حساب کاربری</text></g></g><g transform="translate(-94,-118) scale(1,1)"><path fill="#ffffff" stroke="none" d="M 168.384013100364 329.68 C 168.384013100364 324.886167936 172.26985542530946 321 177.06328582763672 321 C 181.85671622996398 321 185.74255855490944 324.886167936 185.74255855490944 329.68 C 185.74255855490944 334.473832064 181.85671622996398 338.36 177.06328582763672 338.36 C 172.26985542530946 338.36 168.384013100364 334.473832064 168.384013100364 329.68 Z"/></g><g transform="translate(-94,-118) scale(1,1)"><path fill="none" stroke="#000000" d="M 168.384013100364 329.68 C 168.384013100364 324.886167936 172.26985542530946 321 177.06328582763672 321 C 181.85671622996398 321 185.74255855490944 324.886167936 185.74255855490944 329.68 C 185.74255855490944 334.473832064 181.85671622996398 338.36 177.06328582763672 338.36 C 172.26985542530946 338.36 168.384013100364 334.473832064 168.384013100364 329.68 Z" stroke-miterlimit="10"/></g><g transform="translate(-94,-118) scale(1,1)"><path fill="none" stroke="#000000" d="M 177.06328582763672 338.36 L 177.06328582763672 355.64" stroke-miterlimit="10"/></g><g transform="translate(-94,-118) scale(1,1)"><path fill="none" stroke="#000000" d="M 167.87346764581855 344.84 L 186.2531040094549 344.84" stroke-miterlimit="10"/></g><g transform="translate(-94,-118) scale(1,1)"><path fill="none" stroke="#000000" d="M 177.06328582763672 355.64 L 164.29964946400037 373" stroke-miterlimit="10"/></g><g transform="translate(-94,-118) scale(1,1)"><path fill="none" stroke="#000000" d="M 177.06328582763672 355.64 L 189.82692219127307 373" stroke-miterlimit="10"/></g><g transform="translate(-94,-118) scale(1,1)"><g><path fill="none" stroke="none"/><text fill="#000000" stroke="none" font-family="Arial" font-size="13px" font-style="italic" font-weight="bold" text-decoration="none" x="162.49858856201172" y="393.5">کاربر</text></g></g><g transform="translate(-94,-118) scale(1,1)"><path fill="#C0C0C0" stroke="none" d="M 479 328 C 479 318.6111584 519.5182256 311 569.5 311 C 619.4817744 311 660 318.6111584 660 328 C 660 337.3888416 619.4817744 345 569.5 345 C 519.5182256 345 479 337.3888416 479 328 Z" opacity="0.2"/></g><g transform="translate(-94,-118) scale(1,1)"><path fill="#ffffff" stroke="none" d="M 472 321 C 472 311.6111584 512.5182256 304 562.5 304 C 612.4817744 304 653 311.6111584 653 321 C 653 330.3888416 612.4817744 338 562.5 338 C 512.5182256 338 472 330.3888416 472 321 Z"/></g><g transform="translate(-94,-118) scale(1,1)"><path fill="none" stroke="#000000" d="M 472 321 C 472 311.6111584 512.5182256 304 562.5 304 C 612.4817744 304 653 311.6111584 653 321 C 653 330.3888416 612.4817744 338 562.5 338 C 512.5182256 338 472 330.3888416 472 321 Z" stroke-miterlimit="10"/></g><g transform="translate(-94,-118) scale(1,1)"><g><path fill="none" stroke="none"/><text fill="#000000" stroke="none" font-family="Arial" font-size="13px" font-style="normal" font-weight="bold" text-decoration="none" x="508.389404296875" y="328">خروج از حساب کاربری</text></g></g><g transform="translate(-94,-118) scale(1,1)"><path fill="#C0C0C0" stroke="none" d="M 487 416 C 487 406.6111584 527.5182256 399 577.5 399 C 627.4817744 399 668 406.6111584 668 416 C 668 425.3888416 627.4817744 433 577.5 433 C 527.5182256 433 487 425.3888416 487 416 Z" opacity="0.2"/></g><g transform="translate(-94,-118) scale(1,1)"><path fill="#ffffff" stroke="none" d="M 480 409 C 480 399.6111584 520.5182256 392 570.5 392 C 620.4817744 392 661 399.6111584 661 409 C 661 418.3888416 620.4817744 426 570.5 426 C 520.5182256 426 480 418.3888416 480 409 Z"/></g><g transform="translate(-94,-118) scale(1,1)"><path fill="none" stroke="#000000" d="M 480 409 C 480 399.6111584 520.5182256 392 570.5 392 C 620.4817744 392 661 399.6111584 661 409 C 661 418.3888416 620.4817744 426 570.5 426 C 520.5182256 426 480 418.3888416 480 409 Z" stroke-miterlimit="10"/></g><g transform="translate(-94,-118) scale(1,1)"><g><path fill="none" stroke="none"/><text fill="#000000" stroke="none" font-family="Arial" font-size="13px" font-style="normal" font-weight="bold" text-decoration="none" x="516.389404296875" y="416">خروج از حساب کاربری</text></g></g><g transform="translate(-94,-118) scale(1,1)"><path fill="#C0C0C0" stroke="none" d="M 511 232 C 511 222.6111584 533.6096176 215 561.5 215 C 589.3903824 215 612 222.6111584 612 232 C 612 241.3888416 589.3903824 249 561.5 249 C 533.6096176 249 511 241.3888416 511 232 Z" opacity="0.2"/></g><g transform="translate(-94,-118) scale(1,1)"><path fill="#ffffff" stroke="none" d="M 504 225 C 504 215.6111584 526.6096176 208 554.5 208 C 582.3903824 208 605 215.6111584 605 225 C 605 234.3888416 582.3903824 242 554.5 242 C 526.6096176 242 504 234.3888416 504 225 Z"/></g><g transform="translate(-94,-118) scale(1,1)"><path fill="none" stroke="#000000" d="M 504 225 C 504 215.6111584 526.6096176 208 554.5 208 C 582.3903824 208 605 215.6111584 605 225 C 605 234.3888416 582.3903824 242 554.5 242 C 526.6096176 242 504 234.3888416 504 225 Z" stroke-miterlimit="10"/></g><g transform="translate(-94,-118) scale(1,1)"><g><path fill="none" stroke="none"/><text fill="#000000" stroke="none" font-family="Arial" font-size="13px" font-style="normal" font-weight="bold" text-decoration="none" x="532.96240234375" y="232">ثبت نام</text></g></g><g transform="translate(-94,-118) scale(1,1)"><path fill="#C0C0C0" stroke="none" d="M 503 560 C 503 550.6111584 531.2060576 543 566 543 C 600.7939424 543 629 550.6111584 629 560 C 629 569.3888416 600.7939424 577 566 577 C 531.2060576 577 503 569.3888416 503 560 Z" opacity="0.2"/></g><g transform="translate(-94,-118) scale(1,1)"><path fill="#ffffff" stroke="none" d="M 496 553 C 496 543.6111584 524.2060576 536 559 536 C 593.7939424 536 622 543.6111584 622 553 C 622 562.3888416 593.7939424 570 559 570 C 524.2060576 570 496 562.3888416 496 553 Z"/></g><g transform="translate(-94,-118) scale(1,1)"><path fill="none" stroke="#000000" d="M 496 553 C 496 543.6111584 524.2060576 536 559 536 C 593.7939424 536 622 543.6111584 622 553 C 622 562.3888416 593.7939424 570 559 570 C 524.2060576 570 496 562.3888416 496 553 Z" stroke-miterlimit="10"/></g><g transform="translate(-94,-118) scale(1,1)"><g><path fill="none" stroke="none"/><text fill="#000000" stroke="none" font-family="Arial" font-size="13px" font-style="normal" font-weight="bold" text-decoration="none" x="520.64111328125" y="560">تغییر رمز عبور</text></g></g><g transform="translate(-94,-118) scale(1,1)"><path fill="none" stroke="#000000" d="M 227 341 L 503 243" stroke-miterlimit="10"/></g><g transform="translate(-94,-118) scale(1,1)"><path fill="none" stroke="#000000" d="M 227 354 L 471 330" stroke-miterlimit="10"/></g><g transform="translate(-94,-118) scale(1,1)"><path fill="none" stroke="#000000" d="M 227 365 L 479 397" stroke-miterlimit="10"/></g><g transform="translate(-94,-118) scale(1,1)"><path fill="none" stroke="#000000" d="M 227 384 L 524 535" stroke-miterlimit="10"/></g><g transform="translate(-94,-118) scale(1,1)"><path fill="#ffffff" stroke="none" d="M 120.40935031960228 441.68 C 120.40935031960228 436.886167936 124.29519264454774 433 129.088623046875 433 C 133.88205344920226 433 137.76789577414772 436.886167936 137.76789577414772 441.68 C 137.76789577414772 446.473832064 133.88205344920226 450.36 129.088623046875 450.36 C 124.29519264454774 450.36 120.40935031960228 446.473832064 120.40935031960228 441.68 Z"/></g><g transform="translate(-94,-118) scale(1,1)"><path fill="none" stroke="#000000" d="M 120.40935031960228 441.68 C 120.40935031960228 436.886167936 124.29519264454774 433 129.088623046875 433 C 133.88205344920226 433 137.76789577414772 436.886167936 137.76789577414772 441.68 C 137.76789577414772 446.473832064 133.88205344920226 450.36 129.088623046875 450.36 C 124.29519264454774 450.36 120.40935031960228 446.473832064 120.40935031960228 441.68 Z" stroke-miterlimit="10"/></g><g transform="translate(-94,-118) scale(1,1)"><path fill="none" stroke="#000000" d="M 129.088623046875 450.36 L 129.088623046875 467.64" stroke-miterlimit="10"/></g><g transform="translate(-94,-118) scale(1,1)"><path fill="none" stroke="#000000" d="M 119.89880486505683 456.84 L 138.27844122869317 456.84" stroke-miterlimit="10"/></g><g transform="translate(-94,-118) scale(1,1)"><path fill="none" stroke="#000000" d="M 129.088623046875 467.64 L 116.32498668323865 485" stroke-miterlimit="10"/></g><g transform="translate(-94,-118) scale(1,1)"><path fill="none" stroke="#000000" d="M 129.088623046875 467.64 L 141.85225941051135 485" stroke-miterlimit="10"/></g><g transform="translate(-94,-118) scale(1,1)"><g><path fill="none" stroke="none"/><text fill="#000000" stroke="none" font-family="Arial" font-size="13px" font-style="normal" font-weight="bold" text-decoration="none" x="111.378662109375" y="505.5">مشتری</text></g></g><g transform="translate(-94,-118) scale(1,1)"><path fill="#ffffff" stroke="none" d="M 216.40935031960228 441.68 C 216.40935031960228 436.886167936 220.29519264454774 433 225.088623046875 433 C 229.88205344920226 433 233.76789577414772 436.886167936 233.76789577414772 441.68 C 233.76789577414772 446.473832064 229.88205344920226 450.36 225.088623046875 450.36 C 220.29519264454774 450.36 216.40935031960228 446.473832064 216.40935031960228 441.68 Z"/></g><g transform="translate(-94,-118) scale(1,1)"><path fill="none" stroke="#000000" d="M 216.40935031960228 441.68 C 216.40935031960228 436.886167936 220.29519264454774 433 225.088623046875 433 C 229.88205344920226 433 233.76789577414772 436.886167936 233.76789577414772 441.68 C 233.76789577414772 446.473832064 229.88205344920226 450.36 225.088623046875 450.36 C 220.29519264454774 450.36 216.40935031960228 446.473832064 216.40935031960228 441.68 Z" stroke-miterlimit="10"/></g><g transform="translate(-94,-118) scale(1,1)"><path fill="none" stroke="#000000" d="M 225.088623046875 450.36 L 225.088623046875 467.64" stroke-miterlimit="10"/></g><g transform="translate(-94,-118) scale(1,1)"><path fill="none" stroke="#000000" d="M 215.89880486505683 456.84 L 234.27844122869317 456.84" stroke-miterlimit="10"/></g><g transform="translate(-94,-118) scale(1,1)"><path fill="none" stroke="#000000" d="M 225.088623046875 467.64 L 212.32498668323865 485" stroke-miterlimit="10"/></g><g transform="translate(-94,-118) scale(1,1)"><path fill="none" stroke="#000000" d="M 225.088623046875 467.64 L 237.85225941051135 485" stroke-miterlimit="10"/></g><g transform="translate(-94,-118) scale(1,1)"><g><path fill="none" stroke="none"/><text fill="#000000" stroke="none" font-family="Arial" font-size="13px" font-style="normal" font-weight="bold" text-decoration="none" x="206.001220703125" y="505.5">کارمند</text></g></g><g transform="translate(-94,-118) scale(1,1)"><path fill="none" stroke="#000000" d="M 146 431 L 159 400" stroke-miterlimit="10"/></g><g transform="translate(-94,-118) scale(1,1)"><path fill="#FFFFFF" stroke="none" d="M 158.90363231060022 421.9997889369066 L 159 400 L 143.37565781137866 415.4880576952976"/></g><g transform="translate(-94,-118) scale(1,1)"><path fill="none" stroke="#000000" d="M 158.90363231060022 421.9997889369066 L 159 400 L 143.37565781137866 415.4880576952976 L 158.90363231060022 421.9997889369066" stroke-miterlimit="10"/></g><g transform="translate(-94,-118) scale(1,1)"><path fill="none" stroke="#000000" d="M 208 431 L 195 400" stroke-miterlimit="10"/></g><g transform="translate(-94,-118) scale(1,1)"><path fill="#FFFFFF" stroke="none" d="M 210.62434218862134 415.4880576952976 L 195 400 L 195.09636768939978 421.9997889369066"/></g><g transform="translate(-94,-118) scale(1,1)"><path fill="none" stroke="#000000" d="M 210.62434218862134 415.4880576952976 L 195 400 L 195.09636768939978 421.9997889369066 L 210.62434218862134 415.4880576952976" stroke-miterlimit="10"/></g><g transform="translate(-94,-118) scale(1,1)"><path fill="#C0C0C0" stroke="none" d="M 655 264 C 655 254.6111584 686.340064 247 725 247 C 763.659936 247 795 254.6111584 795 264 C 795 273.3888416 763.659936 281 725 281 C 686.340064 281 655 273.3888416 655 264 Z" opacity="0.2"/></g><g transform="translate(-94,-118) scale(1,1)"><path fill="#ffffff" stroke="none" d="M 648 257 C 648 247.6111584 679.340064 240 718 240 C 756.659936 240 788 247.6111584 788 257 C 788 266.3888416 756.659936 274 718 274 C 679.340064 274 648 266.3888416 648 257 Z"/></g><g transform="translate(-94,-118) scale(1,1)"><path fill="none" stroke="#000000" d="M 648 257 C 648 247.6111584 679.340064 240 718 240 C 756.659936 240 788 247.6111584 788 257 C 788 266.3888416 756.659936 274 718 274 C 679.340064 274 648 266.3888416 648 257 Z" stroke-miterlimit="10"/></g><g transform="translate(-94,-118) scale(1,1)"><g><path fill="none" stroke="none"/><text fill="#000000" stroke="none" font-family="Arial" font-size="13px" font-style="normal" font-weight="bold" text-decoration="none" x="665.162109375" y="264">اضافه کردن کارمند</text></g></g><g transform="translate(-94,-118) scale(1,1)"><path fill="#ffffff" stroke="none" d="M 920.4093503196023 257.68 C 920.4093503196023 252.886167936 924.2951926445477 249 929.088623046875 249 C 933.8820534492023 249 937.7678957741477 252.886167936 937.7678957741477 257.68 C 937.7678957741477 262.473832064 933.8820534492023 266.36 929.088623046875 266.36 C 924.2951926445477 266.36 920.4093503196023 262.473832064 920.4093503196023 257.68 Z"/></g><g transform="translate(-94,-118) scale(1,1)"><path fill="none" stroke="#000000" d="M 920.4093503196023 257.68 C 920.4093503196023 252.886167936 924.2951926445477 249 929.088623046875 249 C 933.8820534492023 249 937.7678957741477 252.886167936 937.7678957741477 257.68 C 937.7678957741477 262.473832064 933.8820534492023 266.36 929.088623046875 266.36 C 924.2951926445477 266.36 920.4093503196023 262.473832064 920.4093503196023 257.68 Z" stroke-miterlimit="10"/></g><g transform="translate(-94,-118) scale(1,1)"><path fill="none" stroke="#000000" d="M 929.088623046875 266.36 L 929.088623046875 283.64" stroke-miterlimit="10"/></g><g transform="translate(-94,-118) scale(1,1)"><path fill="none" stroke="#000000" d="M 919.8988048650568 272.84 L 938.2784412286932 272.84" stroke-miterlimit="10"/></g><g transform="translate(-94,-118) scale(1,1)"><path fill="none" stroke="#000000" d="M 929.088623046875 283.64 L 916.3249866832386 301" stroke-miterlimit="10"/></g><g transform="translate(-94,-118) scale(1,1)"><path fill="none" stroke="#000000" d="M 929.088623046875 283.64 L 941.8522594105114 301" stroke-miterlimit="10"/></g><g transform="translate(-94,-118) scale(1,1)"><g><path fill="none" stroke="none"/><text fill="#000000" stroke="none" font-family="Arial" font-size="13px" font-style="normal" font-weight="bold" text-decoration="none" x="917.529541015625" y="321.5">مدیر</text></g></g><g transform="translate(-94,-118) scale(1,1)"><path fill="none" stroke="#000000" d="M 903 283 L 789 267" stroke-miterlimit="10"/></g></g></svg>