<svg version="1.1" xmlns="http://www.w3.org/2000/svg" xmlns:xlink="http://www.w3.org/1999/xlink" width="1056.56982421875" height="606"><defs/><g><g transform="translate(-126,-102) scale(1,1)"><path fill="#C0C0C0" stroke="none" d="M 143 136.5 C 143 131.2532944 147.2532944 127 152.5 127 C 157.7467056 127 162 131.2532944 162 136.5 C 162 141.7467056 157.7467056 146 152.5 146 C 147.2532944 146 143 141.7467056 143 136.5 Z" opacity="0.2"/></g><g transform="translate(-126,-102) scale(1,1)"><path fill="#000000" stroke="none" d="M 136 129.5 C 136 124.2532944 140.2532944 120 145.5 120 C 150.7467056 120 155 124.2532944 155 129.5 C 155 134.7467056 150.7467056 139 145.5 139 C 140.2532944 139 136 134.7467056 136 129.5 Z"/></g><g transform="translate(-126,-102) scale(1,1)"><path fill="#C0C0C0" stroke="none" d="M 281 119 L 476.62255859375 119 Q 486.62255859375 119 486.62255859375 129 L 486.62255859375 149 Q 486.62255859375 159 476.62255859375 159 L 281 159 Q 271 159 271 149 L 271 129 Q 271 119 281 119 Z" opacity="0.2"/></g><g transform="translate(-126,-102) scale(1,1)"><path fill="#ffffff" stroke="none" d="M 274 112 L 469.62255859375 112 Q 479.62255859375 112 479.62255859375 122 L 479.62255859375 142 Q 479.62255859375 152 469.62255859375 152 L 274 152 Q 264 152 264 142 L 264 122 Q 264 112 274 112 Z"/></g><g transform="translate(-126,-102) scale(1,1)"><path fill="none" stroke="#000000" d="M 274 112 L 469.62255859375 112 Q 479.62255859375 112 479.62255859375 122 L 479.62255859375 142 Q 479.62255859375 152 469.62255859375 152 L 274 152 Q 264 152 264 142 L 264 122 Q 264 112 274 112 Z" stroke-miterlimit="10"/></g><g transform="translate(-126,-102) scale(1,1)"><g><path fill="none" stroke="none"/><text fill="#000000" stroke="none" font-family="Arial" font-size="13px" font-style="normal" font-weight="bold" text-decoration="none" x="243.975830078125" y="131.5">انخاب گزینه پیش بینی زمان تحویل توسط مدیر</text></g></g><g transform="translate(-126,-102) scale(1,1)"><path fill="#C0C0C0" stroke="none" d="M 681 119 L 746.42578125 119 Q 756.42578125 119 756.42578125 129 L 756.42578125 149 Q 756.42578125 159 746.42578125 159 L 681 159 Q 671 159 671 149 L 671 129 Q 671 119 681 119 Z" opacity="0.2"/></g><g transform="translate(-126,-102) scale(1,1)"><path fill="#ffffff" stroke="none" d="M 674 112 L 739.42578125 112 Q 749.42578125 112 749.42578125 122 L 749.42578125 142 Q 749.42578125 152 739.42578125 152 L 674 152 Q 664 152 664 142 L 664 122 Q 664 112 674 112 Z"/></g><g transform="translate(-126,-102) scale(1,1)"><path fill="none" stroke="#000000" d="M 674 112 L 739.42578125 112 Q 749.42578125 112 749.42578125 122 L 749.42578125 142 Q 749.42578125 152 739.42578125 152 L 674 152 Q 664 152 664 142 L 664 122 Q 664 112 674 112 Z" stroke-miterlimit="10"/></g><g transform="translate(-126,-102) scale(1,1)"><g><path fill="none" stroke="none"/><text fill="#000000" stroke="none" font-family="Arial" font-size="13px" font-style="normal" font-weight="bold" text-decoration="none" x="653.79248046875" y="131.5">جستجو در سیستم</text></g></g><g transform="translate(-126,-102) scale(1,1)"><path fill="#C0C0C0" stroke="none" d="M 913 119 L 1129.56982421875 119 Q 1139.56982421875 119 1139.56982421875 129 L 1139.56982421875 149 Q 1139.56982421875 159 1129.56982421875 159 L 913 159 Q 903 159 903 149 L 903 129 Q 903 119 913 119 Z" opacity="0.2"/></g><g transform="translate(-126,-102) scale(1,1)"><path fill="#ffffff" stroke="none" d="M 906 112 L 1122.56982421875 112 Q 1132.56982421875 112 1132.56982421875 122 L 1132.56982421875 142 Q 1132.56982421875 152 1122.56982421875 152 L 906 152 Q 896 152 896 142 L 896 122 Q 896 112 906 112 Z"/></g><g transform="translate(-126,-102) scale(1,1)"><path fill="none" stroke="#000000" d="M 906 112 L 1122.56982421875 112 Q 1132.56982421875 112 1132.56982421875 122 L 1132.56982421875 142 Q 1132.56982421875 152 1122.56982421875 152 L 906 152 Q 896 152 896 142 L 896 122 Q 896 112 906 112 Z" stroke-miterlimit="10"/></g><g transform="translate(-126,-102) scale(1,1)"><g><path fill="none" stroke="none"/><text fill="#000000" stroke="none" font-family="Arial" font-size="13px" font-style="normal" font-weight="bold" text-decoration="none" x="858.0087890625" y="131.5">سیستم مجصولات مشابه را به مدیر نمایش نشان میدهد</text></g></g><g transform="translate(-126,-102) scale(1,1)"><path fill="#C0C0C0" stroke="none" d="M 937 231 L 1137.66259765625 231 Q 1147.66259765625 231 1147.66259765625 241 L 1147.66259765625 261 Q 1147.66259765625 271 1137.66259765625 271 L 937 271 Q 927 271 927 261 L 927 241 Q 927 231 937 231 Z" opacity="0.2"/></g><g transform="translate(-126,-102) scale(1,1)"><path fill="#ffffff" stroke="none" d="M 930 224 L 1130.66259765625 224 Q 1140.66259765625 224 1140.66259765625 234 L 1140.66259765625 254 Q 1140.66259765625 264 1130.66259765625 264 L 930 264 Q 920 264 920 254 L 920 234 Q 920 224 930 224 Z"/></g><g transform="translate(-126,-102) scale(1,1)"><path fill="none" stroke="#000000" d="M 930 224 L 1130.66259765625 224 Q 1140.66259765625 224 1140.66259765625 234 L 1140.66259765625 254 Q 1140.66259765625 264 1130.66259765625 264 L 930 264 Q 920 264 920 254 L 920 234 Q 920 224 930 224 Z" stroke-miterlimit="10"/></g><g transform="translate(-126,-102) scale(1,1)"><g><path fill="none" stroke="none"/><text fill="#000000" stroke="none" font-family="Arial" font-size="13px" font-style="normal" font-weight="bold" text-decoration="none" x="901.467529296875" y="243.5">مدریت محصول مشابه مورد نظر را  را انتخاب میکند</text></g></g><g transform="translate(-126,-102) scale(1,1)"><path fill="#C0C0C0" stroke="none" d="M 649 231 L 828.658203125 231 Q 838.658203125 231 838.658203125 241 L 838.658203125 261 Q 838.658203125 271 828.658203125 271 L 649 271 Q 639 271 639 261 L 639 241 Q 639 231 649 231 Z" opacity="0.2"/></g><g transform="translate(-126,-102) scale(1,1)"><path fill="#ffffff" stroke="none" d="M 642 224 L 821.658203125 224 Q 831.658203125 224 831.658203125 234 L 831.658203125 254 Q 831.658203125 264 821.658203125 264 L 642 264 Q 632 264 632 254 L 632 234 Q 632 224 642 224 Z"/></g><g transform="translate(-126,-102) scale(1,1)"><path fill="none" stroke="#000000" d="M 642 224 L 821.658203125 224 Q 831.658203125 224 831.658203125 234 L 831.658203125 254 Q 831.658203125 264 821.658203125 264 L 642 264 Q 632 264 632 254 L 632 234 Q 632 224 642 224 Z" stroke-miterlimit="10"/></g><g transform="translate(-126,-102) scale(1,1)"><g><path fill="none" stroke="none"/><text fill="#000000" stroke="none" font-family="Arial" font-size="13px" font-style="normal" font-weight="bold" text-decoration="none" x="608.1513671875" y="243.5">سیستم زمان تحویل این محصول را نشان میدهد</text></g></g><g transform="translate(-126,-102) scale(1,1)"><path fill="#C0C0C0" stroke="none" d="M 487 251.5 C 487 244.59644 492.59644 239 499.5 239 C 506.40356 239 512 244.59644 512 251.5 C 512 258.40356 506.40356 264 499.5 264 C 492.59644 264 487 258.40356 487 251.5 Z" opacity="0.2"/></g><g transform="translate(-126,-102) scale(1,1)"><path fill="none" stroke="#000000" d="M 480 244.5 C 480 237.59644 485.59644 232 492.5 232 C 499.40356 232 505 237.59644 505 244.5 C 505 251.40356 499.40356 257 492.5 257 C 485.59644 257 480 251.40356 480 244.5 Z" stroke-miterlimit="10"/></g><g transform="translate(-126,-102) scale(1,1)"><path fill="#000000" stroke="none" d="M 485 244.5 C 485 240.357864 488.357864 237 492.5 237 C 496.642136 237 500 240.357864 500 244.5 C 500 248.642136 496.642136 252 492.5 252 C 488.357864 252 485 248.642136 485 244.5 Z"/></g><g transform="translate(-126,-102) scale(1,1)"><path fill="none" stroke="#000000" d="M 156 129 L 263 131" stroke-miterlimit="10"/></g><g transform="translate(-126,-102) scale(1,1)"><path fill="none" stroke="#000000" d="M 252.76043113849087 135.0188592324704 L 263 131 L 252.9177688056863 126.60129403751424" stroke-miterlimit="10"/></g><g transform="translate(-126,-102) scale(1,1)"><path fill="none" stroke="#000000" d="M 750 132 L 895 132" stroke-miterlimit="10"/></g><g transform="translate(-126,-102) scale(1,1)"><path fill="none" stroke="#000000" d="M 884.8373251423759 136.209517756016 L 895 132 L 884.8373251423758 127.79048224398402" stroke-miterlimit="10"/></g><g transform="translate(-126,-102) scale(1,1)"><path fill="none" stroke="#000000" d="M 1017 153 L 1027 223" stroke-miterlimit="10"/></g><g transform="translate(-126,-102) scale(1,1)"><path fill="none" stroke="#000000" d="M 1021.3955707675103 213.53478088061271 L 1027 223 L 1029.7299907097618 212.34414946029108" stroke-miterlimit="10"/></g><g transform="translate(-126,-102) scale(1,1)"><path fill="none" stroke="#000000" d="M 919 244 L 833 244" stroke-miterlimit="10"/></g><g transform="translate(-126,-102) scale(1,1)"><path fill="none" stroke="#000000" d="M 843.1626748576241 239.790482243984 L 833 244 L 843.1626748576241 248.209517756016" stroke-miterlimit="10"/></g><g transform="translate(-126,-102) scale(1,1)"><path fill="none" stroke="#000000" d="M 631 244 L 506 244" stroke-miterlimit="10"/></g><g transform="translate(-126,-102) scale(1,1)"><path fill="none" stroke="#000000" d="M 516.1626748576241 239.790482243984 L 506 244 L 516.1626748576241 248.209517756016" stroke-miterlimit="10"/></g><g transform="translate(-126,-102) scale(1,1)"><path fill="#C0C0C0" stroke="none" d="M 281 359 L 474.673828125 359 Q 484.673828125 359 484.673828125 369 L 484.673828125 389 Q 484.673828125 399 474.673828125 399 L 281 399 Q 271 399 271 389 L 271 369 Q 271 359 281 359 Z" opacity="0.2"/></g><g transform="translate(-126,-102) scale(1,1)"><path fill="#ffffff" stroke="none" d="M 274 352 L 467.673828125 352 Q 477.673828125 352 477.673828125 362 L 477.673828125 382 Q 477.673828125 392 467.673828125 392 L 274 392 Q 264 392 264 382 L 264 362 Q 264 352 274 352 Z"/></g><g transform="translate(-126,-102) scale(1,1)"><path fill="none" stroke="#000000" d="M 274 352 L 467.673828125 352 Q 477.673828125 352 477.673828125 362 L 477.673828125 382 Q 477.673828125 392 467.673828125 392 L 274 392 Q 264 392 264 382 L 264 362 Q 264 352 274 352 Z" stroke-miterlimit="10"/></g><g transform="translate(-126,-102) scale(1,1)"><g><path fill="none" stroke="none"/><text fill="#000000" stroke="none" font-family="Arial" font-size="13px" font-style="normal" font-weight="bold" text-decoration="none" x="258.115234375" y="371.5">انخاب گزینه پیش بینی قیمت توسط مدیر</text></g></g><g transform="translate(-126,-102) scale(1,1)"><path fill="#C0C0C0" stroke="none" d="M 721 359 L 786.42578125 359 Q 796.42578125 359 796.42578125 369 L 796.42578125 389 Q 796.42578125 399 786.42578125 399 L 721 399 Q 711 399 711 389 L 711 369 Q 711 359 721 359 Z" opacity="0.2"/></g><g transform="translate(-126,-102) scale(1,1)"><path fill="#ffffff" stroke="none" d="M 714 352 L 779.42578125 352 Q 789.42578125 352 789.42578125 362 L 789.42578125 382 Q 789.42578125 392 779.42578125 392 L 714 392 Q 704 392 704 382 L 704 362 Q 704 352 714 352 Z"/></g><g transform="translate(-126,-102) scale(1,1)"><path fill="none" stroke="#000000" d="M 714 352 L 779.42578125 352 Q 789.42578125 352 789.42578125 362 L 789.42578125 382 Q 789.42578125 392 779.42578125 392 L 714 392 Q 704 392 704 382 L 704 362 Q 704 352 714 352 Z" stroke-miterlimit="10"/></g><g transform="translate(-126,-102) scale(1,1)"><g><path fill="none" stroke="none"/><text fill="#000000" stroke="none" font-family="Arial" font-size="13px" font-style="normal" font-weight="bold" text-decoration="none" x="693.79248046875" y="371.5">جستجو در سیستم</text></g></g><g transform="translate(-126,-102) scale(1,1)"><path fill="#C0C0C0" stroke="none" d="M 905 359 L 1121.56982421875 359 Q 1131.56982421875 359 1131.56982421875 369 L 1131.56982421875 389 Q 1131.56982421875 399 1121.56982421875 399 L 905 399 Q 895 399 895 389 L 895 369 Q 895 359 905 359 Z" opacity="0.2"/></g><g transform="translate(-126,-102) scale(1,1)"><path fill="#ffffff" stroke="none" d="M 898 352 L 1114.56982421875 352 Q 1124.56982421875 352 1124.56982421875 362 L 1124.56982421875 382 Q 1124.56982421875 392 1114.56982421875 392 L 898 392 Q 888 392 888 382 L 888 362 Q 888 352 898 352 Z"/></g><g transform="translate(-126,-102) scale(1,1)"><path fill="none" stroke="#000000" d="M 898 352 L 1114.56982421875 352 Q 1124.56982421875 352 1124.56982421875 362 L 1124.56982421875 382 Q 1124.56982421875 392 1114.56982421875 392 L 898 392 Q 888 392 888 382 L 888 362 Q 888 352 898 352 Z" stroke-miterlimit="10"/></g><g transform="translate(-126,-102) scale(1,1)"><g><path fill="none" stroke="none"/><text fill="#000000" stroke="none" font-family="Arial" font-size="13px" font-style="normal" font-weight="bold" text-decoration="none" x="850.0087890625" y="371.5">سیستم مجصولات مشابه را به مدیر نمایش نشان میدهد</text></g></g><g transform="translate(-126,-102) scale(1,1)"><path fill="#C0C0C0" stroke="none" d="M 937 455 L 1137.66259765625 455 Q 1147.66259765625 455 1147.66259765625 465 L 1147.66259765625 485 Q 1147.66259765625 495 1137.66259765625 495 L 937 495 Q 927 495 927 485 L 927 465 Q 927 455 937 455 Z" opacity="0.2"/></g><g transform="translate(-126,-102) scale(1,1)"><path fill="#ffffff" stroke="none" d="M 930 448 L 1130.66259765625 448 Q 1140.66259765625 448 1140.66259765625 458 L 1140.66259765625 478 Q 1140.66259765625 488 1130.66259765625 488 L 930 488 Q 920 488 920 478 L 920 458 Q 920 448 930 448 Z"/></g><g transform="translate(-126,-102) scale(1,1)"><path fill="none" stroke="#000000" d="M 930 448 L 1130.66259765625 448 Q 1140.66259765625 448 1140.66259765625 458 L 1140.66259765625 478 Q 1140.66259765625 488 1130.66259765625 488 L 930 488 Q 920 488 920 478 L 920 458 Q 920 448 930 448 Z" stroke-miterlimit="10"/></g><g transform="translate(-126,-102) scale(1,1)"><g><path fill="none" stroke="none"/><text fill="#000000" stroke="none" font-family="Arial" font-size="13px" font-style="normal" font-weight="bold" text-decoration="none" x="901.467529296875" y="467.5">مدریت محصول مشابه مورد نظر را  را انتخاب میکند</text></g></g><g transform="translate(-126,-102) scale(1,1)"><path fill="#C0C0C0" stroke="none" d="M 689 455 L 854.6552734375 455 Q 864.6552734375 455 864.6552734375 465 L 864.6552734375 485 Q 864.6552734375 495 854.6552734375 495 L 689 495 Q 679 495 679 485 L 679 465 Q 679 455 689 455 Z" opacity="0.2"/></g><g transform="translate(-126,-102) scale(1,1)"><path fill="#ffffff" stroke="none" d="M 682 448 L 847.6552734375 448 Q 857.6552734375 448 857.6552734375 458 L 857.6552734375 478 Q 857.6552734375 488 847.6552734375 488 L 682 488 Q 672 488 672 478 L 672 458 Q 672 448 682 448 Z"/></g><g transform="translate(-126,-102) scale(1,1)"><path fill="none" stroke="#000000" d="M 682 448 L 847.6552734375 448 Q 857.6552734375 448 857.6552734375 458 L 857.6552734375 478 Q 857.6552734375 488 847.6552734375 488 L 682 488 Q 672 488 672 478 L 672 458 Q 672 448 682 448 Z" stroke-miterlimit="10"/></g><g transform="translate(-126,-102) scale(1,1)"><g><path fill="none" stroke="none"/><text fill="#000000" stroke="none" font-family="Arial" font-size="13px" font-style="normal" font-weight="bold" text-decoration="none" x="652.48681640625" y="467.5">سیستم قیمت این محصول را نمایش میدهد</text></g></g><g transform="translate(-126,-102) scale(1,1)"><path fill="#C0C0C0" stroke="none" d="M 567 475.5 C 567 468.59644 572.59644 463 579.5 463 C 586.40356 463 592 468.59644 592 475.5 C 592 482.40356 586.40356 488 579.5 488 C 572.59644 488 567 482.40356 567 475.5 Z" opacity="0.2"/></g><g transform="translate(-126,-102) scale(1,1)"><path fill="none" stroke="#000000" d="M 560 468.5 C 560 461.59644 565.59644 456 572.5 456 C 579.40356 456 585 461.59644 585 468.5 C 585 475.40356 579.40356 481 572.5 481 C 565.59644 481 560 475.40356 560 468.5 Z" stroke-miterlimit="10"/></g><g transform="translate(-126,-102) scale(1,1)"><path fill="#000000" stroke="none" d="M 565 468.5 C 565 464.357864 568.357864 461 572.5 461 C 576.642136 461 580 464.357864 580 468.5 C 580 472.642136 576.642136 476 572.5 476 C 568.357864 476 565 472.642136 565 468.5 Z"/></g><g transform="translate(-126,-102) scale(1,1)"><path fill="none" stroke="#000000" d="M 790 372 L 887 372" stroke-miterlimit="10"/></g><g transform="translate(-126,-102) scale(1,1)"><path fill="none" stroke="#000000" d="M 876.8373251423759 376.209517756016 L 887 372 L 876.8373251423758 367.790482243984" stroke-miterlimit="10"/></g><g transform="translate(-126,-102) scale(1,1)"><path fill="none" stroke="#000000" d="M 1011 393 L 1025 447" stroke-miterlimit="10"/></g><g transform="translate(-126,-102) scale(1,1)"><path fill="none" stroke="#000000" d="M 1018.3747530481162 438.21899192424047 L 1025 447 L 1026.524353309311 436.10613259726404" stroke-miterlimit="10"/></g><g transform="translate(-126,-102) scale(1,1)"><path fill="none" stroke="#000000" d="M 919 468 L 859 468" stroke-miterlimit="10"/></g><g transform="translate(-126,-102) scale(1,1)"><path fill="none" stroke="#000000" d="M 869.1626748576241 463.790482243984 L 859 468 L 869.1626748576241 472.209517756016" stroke-miterlimit="10"/></g><g transform="translate(-126,-102) scale(1,1)"><path fill="none" stroke="#000000" d="M 671 468 L 586 468" stroke-miterlimit="10"/></g><g transform="translate(-126,-102) scale(1,1)"><path fill="none" stroke="#000000" d="M 596.1626748576241 463.790482243984 L 586 468 L 596.1626748576241 472.209517756016" stroke-miterlimit="10"/></g><g transform="translate(-126,-102) scale(1,1)"><path fill="#C0C0C0" stroke="none" d="M 151 376.5 C 151 371.2532944 155.2532944 367 160.5 367 C 165.7467056 367 170 371.2532944 170 376.5 C 170 381.7467056 165.7467056 386 160.5 386 C 155.2532944 386 151 381.7467056 151 376.5 Z" opacity="0.2"/></g><g transform="translate(-126,-102) scale(1,1)"><path fill="#000000" stroke="none" d="M 144 369.5 C 144 364.2532944 148.2532944 360 153.5 360 C 158.7467056 360 163 364.2532944 163 369.5 C 163 374.7467056 158.7467056 379 153.5 379 C 148.2532944 379 144 374.7467056 144 369.5 Z"/></g><g transform="translate(-126,-102) scale(1,1)"><path fill="none" stroke="#000000" d="M 164 369 L 263 371" stroke-miterlimit="10"/></g><g transform="translate(-126,-102) scale(1,1)"><path fill="none" stroke="#000000" d="M 252.75437489691222 375.0033943406786 L 263 371 L 252.92442172605382 366.5860762981692" stroke-miterlimit="10"/></g><g transform="translate(-126,-102) scale(1,1)"><path fill="#C0C0C0" stroke="none" d="M 151 584.5 C 151 579.2532944 155.2532944 575 160.5 575 C 165.7467056 575 170 579.2532944 170 584.5 C 170 589.7467056 165.7467056 594 160.5 594 C 155.2532944 594 151 589.7467056 151 584.5 Z" opacity="0.2"/></g><g transform="translate(-126,-102) scale(1,1)"><path fill="#000000" stroke="none" d="M 144 577.5 C 144 572.2532944 148.2532944 568 153.5 568 C 158.7467056 568 163 572.2532944 163 577.5 C 163 582.7467056 158.7467056 587 153.5 587 C 148.2532944 587 144 582.7467056 144 577.5 Z"/></g><g transform="translate(-126,-102) scale(1,1)"><path fill="#C0C0C0" stroke="none" d="M 249 567 L 492.01416015625 567 Q 502.01416015625 567 502.01416015625 577 L 502.01416015625 597 Q 502.01416015625 607 492.01416015625 607 L 249 607 Q 239 607 239 597 L 239 577 Q 239 567 249 567 Z" opacity="0.2"/></g><g transform="translate(-126,-102) scale(1,1)"><path fill="#ffffff" stroke="none" d="M 242 560 L 485.01416015625 560 Q 495.01416015625 560 495.01416015625 570 L 495.01416015625 590 Q 495.01416015625 600 485.01416015625 600 L 242 600 Q 232 600 232 590 L 232 570 Q 232 560 242 560 Z"/></g><g transform="translate(-126,-102) scale(1,1)"><path fill="none" stroke="#000000" d="M 242 560 L 485.01416015625 560 Q 495.01416015625 560 495.01416015625 570 L 495.01416015625 590 Q 495.01416015625 600 485.01416015625 600 L 242 600 Q 232 600 232 590 L 232 570 Q 232 560 242 560 Z" stroke-miterlimit="10"/></g><g transform="translate(-126,-102) scale(1,1)"><g><path fill="none" stroke="none"/><text fill="#000000" stroke="none" font-family="Arial" font-size="13px" font-style="normal" font-weight="bold" text-decoration="none" x="206.821533203125" y="579.5">انخاب گزینه پیش بینی حداقل و حداکثر موجودی توسط مدیر</text></g></g><g transform="translate(-126,-102) scale(1,1)"><path fill="#C0C0C0" stroke="none" d="M 713 567 L 778.42578125 567 Q 788.42578125 567 788.42578125 577 L 788.42578125 597 Q 788.42578125 607 778.42578125 607 L 713 607 Q 703 607 703 597 L 703 577 Q 703 567 713 567 Z" opacity="0.2"/></g><g transform="translate(-126,-102) scale(1,1)"><path fill="#ffffff" stroke="none" d="M 706 560 L 771.42578125 560 Q 781.42578125 560 781.42578125 570 L 781.42578125 590 Q 781.42578125 600 771.42578125 600 L 706 600 Q 696 600 696 590 L 696 570 Q 696 560 706 560 Z"/></g><g transform="translate(-126,-102) scale(1,1)"><path fill="none" stroke="#000000" d="M 706 560 L 771.42578125 560 Q 781.42578125 560 781.42578125 570 L 781.42578125 590 Q 781.42578125 600 771.42578125 600 L 706 600 Q 696 600 696 590 L 696 570 Q 696 560 706 560 Z" stroke-miterlimit="10"/></g><g transform="translate(-126,-102) scale(1,1)"><g><path fill="none" stroke="none"/><text fill="#000000" stroke="none" font-family="Arial" font-size="13px" font-style="normal" font-weight="bold" text-decoration="none" x="685.79248046875" y="579.5">جستجو در سیستم</text></g></g><g transform="translate(-126,-102) scale(1,1)"><path fill="#C0C0C0" stroke="none" d="M 953 567 L 1169.56982421875 567 Q 1179.56982421875 567 1179.56982421875 577 L 1179.56982421875 597 Q 1179.56982421875 607 1169.56982421875 607 L 953 607 Q 943 607 943 597 L 943 577 Q 943 567 953 567 Z" opacity="0.2"/></g><g transform="translate(-126,-102) scale(1,1)"><path fill="#ffffff" stroke="none" d="M 946 560 L 1162.56982421875 560 Q 1172.56982421875 560 1172.56982421875 570 L 1172.56982421875 590 Q 1172.56982421875 600 1162.56982421875 600 L 946 600 Q 936 600 936 590 L 936 570 Q 936 560 946 560 Z"/></g><g transform="translate(-126,-102) scale(1,1)"><path fill="none" stroke="#000000" d="M 946 560 L 1162.56982421875 560 Q 1172.56982421875 560 1172.56982421875 570 L 1172.56982421875 590 Q 1172.56982421875 600 1162.56982421875 600 L 946 600 Q 936 600 936 590 L 936 570 Q 936 560 946 560 Z" stroke-miterlimit="10"/></g><g transform="translate(-126,-102) scale(1,1)"><g><path fill="none" stroke="none"/><text fill="#000000" stroke="none" font-family="Arial" font-size="13px" font-style="normal" font-weight="bold" text-decoration="none" x="898.0087890625" y="579.5">سیستم مجصولات مشابه را به مدیر نمایش نشان میدهد</text></g></g><g transform="translate(-126,-102) scale(1,1)"><path fill="#C0C0C0" stroke="none" d="M 969 663 L 1156.38330078125 663 Q 1166.38330078125 663 1166.38330078125 673 L 1166.38330078125 693 Q 1166.38330078125 703 1156.38330078125 703 L 969 703 Q 959 703 959 693 L 959 673 Q 959 663 969 663 Z" opacity="0.2"/></g><g transform="translate(-126,-102) scale(1,1)"><path fill="#ffffff" stroke="none" d="M 962 656 L 1149.38330078125 656 Q 1159.38330078125 656 1159.38330078125 666 L 1159.38330078125 686 Q 1159.38330078125 696 1149.38330078125 696 L 962 696 Q 952 696 952 686 L 952 666 Q 952 656 962 656 Z"/></g><g transform="translate(-126,-102) scale(1,1)"><path fill="none" stroke="#000000" d="M 962 656 L 1149.38330078125 656 Q 1159.38330078125 656 1159.38330078125 666 L 1159.38330078125 686 Q 1159.38330078125 696 1149.38330078125 696 L 962 696 Q 952 696 952 686 L 952 666 Q 952 656 962 656 Z" stroke-miterlimit="10"/></g><g transform="translate(-126,-102) scale(1,1)"><g><path fill="none" stroke="none"/><text fill="#000000" stroke="none" font-family="Arial" font-size="13px" font-style="normal" font-weight="bold" text-decoration="none" x="953.246826171875" y="675.5">مدیریت محصول مورد نظر را انتخاب میکند</text></g></g><g transform="translate(-126,-102) scale(1,1)"><path fill="#C0C0C0" stroke="none" d="M 721 663 L 984.80908203125 663 Q 994.80908203125 663 994.80908203125 673 L 994.80908203125 693 Q 994.80908203125 703 984.80908203125 703 L 721 703 Q 711 703 711 693 L 711 673 Q 711 663 721 663 Z" opacity="0.2"/></g><g transform="translate(-126,-102) scale(1,1)"><path fill="#ffffff" stroke="none" d="M 714 656 L 977.80908203125 656 Q 987.80908203125 656 987.80908203125 666 L 987.80908203125 686 Q 987.80908203125 696 977.80908203125 696 L 714 696 Q 704 696 704 686 L 704 666 Q 704 656 714 656 Z"/></g><g transform="translate(-126,-102) scale(1,1)"><path fill="none" stroke="#000000" d="M 714 656 L 977.80908203125 656 Q 987.80908203125 656 987.80908203125 666 L 987.80908203125 686 Q 987.80908203125 696 977.80908203125 696 L 714 696 Q 704 696 704 686 L 704 666 Q 704 656 714 656 Z" stroke-miterlimit="10"/></g><g transform="translate(-126,-102) scale(1,1)"><g><path fill="none" stroke="none"/><text fill="#000000" stroke="none" font-family="Arial" font-size="13px" font-style="normal" font-weight="bold" text-decoration="none" x="668.557373046875" y="675.5">سیستم حداقل و حد اکثر موجودی مولفه های محصول را نمایش میدهد</text></g></g><g transform="translate(-126,-102) scale(1,1)"><path fill="#C0C0C0" stroke="none" d="M 599 683.5 C 599 676.59644 604.59644 671 611.5 671 C 618.40356 671 624 676.59644 624 683.5 C 624 690.40356 618.40356 696 611.5 696 C 604.59644 696 599 690.40356 599 683.5 Z" opacity="0.2"/></g><g transform="translate(-126,-102) scale(1,1)"><path fill="none" stroke="#000000" d="M 592 676.5 C 592 669.59644 597.59644 664 604.5 664 C 611.40356 664 617 669.59644 617 676.5 C 617 683.40356 611.40356 689 604.5 689 C 597.59644 689 592 683.40356 592 676.5 Z" stroke-miterlimit="10"/></g><g transform="translate(-126,-102) scale(1,1)"><path fill="#000000" stroke="none" d="M 597 676.5 C 597 672.357864 600.357864 669 604.5 669 C 608.642136 669 612 672.357864 612 676.5 C 612 680.642136 608.642136 684 604.5 684 C 600.357864 684 597 680.642136 597 676.5 Z"/></g><g transform="translate(-126,-102) scale(1,1)"><path fill="none" stroke="#000000" d="M 164 577 L 231 578" stroke-miterlimit="10"/></g><g transform="translate(-126,-102) scale(1,1)"><path fill="none" stroke="#000000" d="M 220.77563528005294 582.0573841417227 L 231 578 L 220.90127853271014 573.6392862136918" stroke-miterlimit="10"/></g><g transform="translate(-126,-102) scale(1,1)"><path fill="none" stroke="#000000" d="M 782 580 L 935 580" stroke-miterlimit="10"/></g><g transform="translate(-126,-102) scale(1,1)"><path fill="none" stroke="#000000" d="M 924.8373251423759 584.209517756016 L 935 580 L 924.8373251423758 575.790482243984" stroke-miterlimit="10"/></g><g transform="translate(-126,-102) scale(1,1)"><path fill="none" stroke="#000000" d="M 1054 601 L 1055 655" stroke-miterlimit="10"/></g><g transform="translate(-126,-102) scale(1,1)"><path fill="none" stroke="#000000" d="M 1050.603038433977 644.9170079347986 L 1055 655 L 1059.0206307240026 644.7611265960943" stroke-miterlimit="10"/></g><g transform="translate(-126,-102) scale(1,1)"><path fill="none" stroke="#000000" d="M 951 676 L 951 697" stroke-miterlimit="10"/></g><g transform="translate(-126,-102) scale(1,1)"><path fill="none" stroke="#000000" d="M 946.790482243984 686.8373251423759 L 951 697 L 955.209517756016 686.8373251423759" stroke-miterlimit="10"/></g><g transform="translate(-126,-102) scale(1,1)"><path fill="none" stroke="#000000" d="M 703 676 L 618 676" stroke-miterlimit="10"/></g><g transform="translate(-126,-102) scale(1,1)"><path fill="none" stroke="#000000" d="M 628.1626748576241 671.790482243984 L 618 676 L 628.1626748576241 680.209517756016" stroke-miterlimit="10"/></g><g transform="translate(-126,-102) scale(1,1)"><path fill="none" stroke="#000000" d="M 481 132 L 663 132" stroke-miterlimit="10"/></g><g transform="translate(-126,-102) scale(1,1)"><path fill="none" stroke="#000000" d="M 652.8373251423759 136.209517756016 L 663 132 L 652.8373251423758 127.79048224398402" stroke-miterlimit="10"/></g><g transform="translate(-126,-102) scale(1,1)"><path fill="none" stroke="#000000" d="M 479 372 L 703 372" stroke-miterlimit="10"/></g><g transform="translate(-126,-102) scale(1,1)"><path fill="none" stroke="#000000" d="M 692.8373251423759 376.209517756016 L 703 372 L 692.8373251423758 367.790482243984" stroke-miterlimit="10"/></g><g transform="translate(-126,-102) scale(1,1)"><path fill="none" stroke="#000000" d="M 496 580 L 695 580" stroke-miterlimit="10"/></g><g transform="translate(-126,-102) scale(1,1)"><path fill="none" stroke="#000000" d="M 684.8373251423759 584.209517756016 L 695 580 L 684.8373251423758 575.790482243984" stroke-miterlimit="10"/></g></g></svg>